<mxfile host="65bd71144e">
    <diagram id="OKlrIGLYL-MtTdUyoojL" name="Page-1">
        <mxGraphModel dx="994" dy="796" grid="1" gridSize="10" guides="1" tooltips="1" connect="1" arrows="1" fold="1" page="1" pageScale="1" pageWidth="827" pageHeight="1169" background="#ffffff" math="0" shadow="0">
            <root>
                <mxCell id="0"/>
                <mxCell id="1" parent="0"/>
                <mxCell id="2" value="" style="rounded=0;whiteSpace=wrap;html=1;fontFamily=Comic Sans MS;labelBackgroundColor=#3E6957;fillColor=#3e6957;" vertex="1" parent="1">
                    <mxGeometry x="510" y="360" width="390" height="210" as="geometry"/>
                </mxCell>
                <mxCell id="3" value="" style="rounded=0;whiteSpace=wrap;html=1;fontFamily=Comic Sans MS;fontColor=none;noLabel=1;labelBackgroundColor=none;fillColor=#c6c5d4;" vertex="1" parent="1">
                    <mxGeometry x="20" y="360" width="384" height="210" as="geometry"/>
                </mxCell>
                <mxCell id="4" value="Ethereum" style="text;html=1;strokeColor=none;fillColor=none;align=center;verticalAlign=middle;whiteSpace=wrap;rounded=0;fontFamily=Comic Sans MS;fontSize=20;" vertex="1" parent="1">
                    <mxGeometry x="197" y="360" width="135" height="40" as="geometry"/>
                </mxCell>
                <mxCell id="5" value="Gnosis" style="text;html=1;strokeColor=none;fillColor=none;align=center;verticalAlign=middle;whiteSpace=wrap;rounded=0;fontFamily=Comic Sans MS;fontSize=20;fontColor=#FFFFFF;" vertex="1" parent="1">
                    <mxGeometry x="600" y="360" width="135" height="40" as="geometry"/>
                </mxCell>
                <mxCell id="6" value="AMB Bridge Validator&amp;nbsp;" style="shape=hexagon;perimeter=hexagonPerimeter2;whiteSpace=wrap;html=1;fixedSize=1;fillColor=#F0EBDE;strokeColor=#d79b00;fontFamily=Comic Sans MS;rounded=0;" vertex="1" parent="1">
                    <mxGeometry x="390" y="594" width="120" height="80" as="geometry"/>
                </mxCell>
                <mxCell id="7" value="AMB Bridge Validator" style="shape=hexagon;perimeter=hexagonPerimeter2;whiteSpace=wrap;html=1;fixedSize=1;fillColor=#F0EBDE;strokeColor=#d6b656;fontFamily=Comic Sans MS;rounded=0;" vertex="1" parent="1">
                    <mxGeometry x="390" y="255" width="120" height="80" as="geometry"/>
                </mxCell>
                <mxCell id="8" value="Relays message" style="endArrow=classic;html=1;exitX=1;exitY=0.25;exitDx=0;exitDy=0;entryX=0.25;entryY=1;entryDx=0;entryDy=0;strokeWidth=2;fontFamily=Comic Sans MS;labelBackgroundColor=none;rounded=0;curved=1;dashed=1;" edge="1" parent="1" source="6" target="19">
                    <mxGeometry x="0.2435" y="-44" width="50" height="50" relative="1" as="geometry">
                        <mxPoint x="460" y="510" as="sourcePoint"/>
                        <mxPoint x="510" y="460" as="targetPoint"/>
                        <mxPoint x="1" as="offset"/>
                    </mxGeometry>
                </mxCell>
                <mxCell id="9" value="Relays message" style="endArrow=classic;html=1;exitX=1;exitY=0.75;exitDx=0;exitDy=0;entryX=0.25;entryY=0;entryDx=0;entryDy=0;strokeWidth=1;fontFamily=Comic Sans MS;labelBackgroundColor=none;rounded=0;curved=1;" edge="1" parent="1" source="7" target="19">
                    <mxGeometry x="-0.0785" y="46" width="50" height="50" relative="1" as="geometry">
                        <mxPoint x="545" y="565" as="sourcePoint"/>
                        <mxPoint x="598.9732142857144" y="470" as="targetPoint"/>
                        <mxPoint x="-1" as="offset"/>
                    </mxGeometry>
                </mxCell>
                <mxCell id="10" value="Relays message" style="endArrow=classic;dashed=1;html=1;strokeWidth=2;entryX=0;entryY=0.25;entryDx=0;entryDy=0;exitX=0.75;exitY=1;exitDx=0;exitDy=0;endFill=1;fontFamily=Comic Sans MS;labelBackgroundColor=none;rounded=0;curved=1;" edge="1" parent="1" target="6">
                    <mxGeometry x="-0.2819" y="-42" width="50" height="50" relative="1" as="geometry">
                        <mxPoint x="322.92857142857133" y="460" as="sourcePoint"/>
                        <mxPoint x="510" y="460" as="targetPoint"/>
                        <mxPoint as="offset"/>
                    </mxGeometry>
                </mxCell>
                <mxCell id="11" value="Relays message" style="endArrow=classic;dashed=1;html=1;strokeWidth=2;entryX=0;entryY=0.75;entryDx=0;entryDy=0;exitX=0.75;exitY=0;exitDx=0;exitDy=0;endFill=1;fontFamily=Comic Sans MS;labelBackgroundColor=none;rounded=0;curved=1;" edge="1" parent="1" target="7">
                    <mxGeometry x="-0.0933" y="46" width="50" height="50" relative="1" as="geometry">
                        <mxPoint x="322.92857142857133" y="400" as="sourcePoint"/>
                        <mxPoint x="350" y="565" as="targetPoint"/>
                        <mxPoint as="offset"/>
                    </mxGeometry>
                </mxCell>
                <mxCell id="12" value="4" style="ellipse;whiteSpace=wrap;html=1;dashed=1;fontFamily=Comic Sans MS;fontSize=12;fontColor=#FFFFFF;strokeColor=none;strokeWidth=2;fillColor=#DD7143;rounded=0;" vertex="1" parent="1">
                    <mxGeometry x="302.84" y="295" width="32" height="32" as="geometry"/>
                </mxCell>
                <mxCell id="13" value="5" style="ellipse;whiteSpace=wrap;html=1;dashed=1;fontFamily=Comic Sans MS;fontSize=12;fontColor=#FFFFFF;strokeColor=none;strokeWidth=2;fillColor=#DD7143;rounded=0;" vertex="1" parent="1">
                    <mxGeometry x="550" y="295" width="30" height="30" as="geometry"/>
                </mxCell>
                <mxCell id="14" value="7" style="ellipse;whiteSpace=wrap;html=1;dashed=1;fontFamily=Comic Sans MS;fontSize=12;fontColor=#FFFFFF;strokeColor=none;strokeWidth=2;fillColor=#DD7143;rounded=0;" vertex="1" parent="1">
                    <mxGeometry x="862" y="439" width="30" height="30" as="geometry"/>
                </mxCell>
                <mxCell id="15" value="" style="rounded=0;whiteSpace=wrap;html=1;fontFamily=Comic Sans MS;" vertex="1" parent="1">
                    <mxGeometry x="240" y="404" width="150" height="56" as="geometry"/>
                </mxCell>
                <mxCell id="16" value="" style="endArrow=classic;startArrow=classic;html=1;fontFamily=Comic Sans MS;entryX=0;entryY=0.5;entryDx=0;entryDy=0;exitX=1;exitY=0.5;exitDx=0;exitDy=0;rounded=0;curved=1;" edge="1" parent="1" source="15" target="19">
                    <mxGeometry width="50" height="50" relative="1" as="geometry">
                        <mxPoint x="377.57142857142844" y="400" as="sourcePoint"/>
                        <mxPoint x="444.05357142857144" y="540" as="targetPoint"/>
                    </mxGeometry>
                </mxCell>
                <mxCell id="17" value="Arbitrary Message Bridge Contract" style="text;html=1;strokeColor=none;fillColor=none;align=center;verticalAlign=middle;whiteSpace=wrap;rounded=0;fontFamily=Comic Sans MS;fontSize=12;" vertex="1" parent="1">
                    <mxGeometry x="255" y="413.5" width="120" height="35.5" as="geometry"/>
                </mxCell>
                <mxCell id="18" value="" style="group;fontFamily=Comic Sans MS;fontSize=11;rounded=0;" vertex="1" connectable="0" parent="1">
                    <mxGeometry x="525.96" y="404" width="147.03999999999996" height="60" as="geometry"/>
                </mxCell>
                <mxCell id="44" value="" style="group" vertex="1" connectable="0" parent="18">
                    <mxGeometry width="136.04" height="60" as="geometry"/>
                </mxCell>
                <mxCell id="19" value="" style="rounded=0;whiteSpace=wrap;html=1;fontFamily=Comic Sans MS;fillColor=#d5e8d4;strokeColor=#82b366;" vertex="1" parent="44">
                    <mxGeometry width="136.04" height="60" as="geometry"/>
                </mxCell>
                <mxCell id="20" value="Arbitrary Message Bridge Contract" style="text;html=1;strokeColor=none;fillColor=none;align=center;verticalAlign=middle;whiteSpace=wrap;rounded=0;fontFamily=Comic Sans MS;fontSize=12;" vertex="1" parent="44">
                    <mxGeometry x="14.580000000000041" y="13" width="111.46" height="30" as="geometry"/>
                </mxCell>
                <mxCell id="22" value="" style="shape=umlActor;verticalLabelPosition=bottom;verticalAlign=top;html=1;outlineConnect=0;fontFamily=Comic Sans MS;fontSize=13;fontColor=#FFFFFF;strokeColor=default;strokeWidth=2;fillColor=none;rounded=0;" vertex="1" parent="1">
                    <mxGeometry x="470" y="314" width="23" height="46" as="geometry"/>
                </mxCell>
                <mxCell id="23" value="" style="shape=umlActor;verticalLabelPosition=bottom;verticalAlign=top;html=1;outlineConnect=0;fontFamily=Comic Sans MS;fontSize=13;fontColor=#FFFFFF;strokeColor=default;strokeWidth=2;fillColor=none;rounded=0;" vertex="1" parent="1">
                    <mxGeometry x="484" y="650" width="23" height="46" as="geometry"/>
                </mxCell>
                <mxCell id="24" value="Calls" style="endArrow=classic;dashed=1;html=1;strokeWidth=2;entryX=0;entryY=0.5;entryDx=0;entryDy=0;endFill=1;fontFamily=Comic Sans MS;labelBackgroundColor=none;rounded=0;curved=1;exitX=1;exitY=0.5;exitDx=0;exitDy=0;" edge="1" parent="1" source="34" target="15">
                    <mxGeometry x="-0.1155" y="11" width="50" height="50" relative="1" as="geometry">
                        <mxPoint x="160" y="432" as="sourcePoint"/>
                        <mxPoint x="245.6414285714286" y="431.1428571428571" as="targetPoint"/>
                        <mxPoint as="offset"/>
                    </mxGeometry>
                </mxCell>
                <mxCell id="31" value="" style="group" vertex="1" connectable="0" parent="1">
                    <mxGeometry x="33" y="500" width="92" height="60" as="geometry"/>
                </mxCell>
                <mxCell id="29" value="" style="rounded=0;whiteSpace=wrap;html=1;fontFamily=Comic Sans MS;" vertex="1" parent="31">
                    <mxGeometry x="2" width="90" height="60" as="geometry"/>
                </mxCell>
                <mxCell id="30" value="ERC-20 Token&lt;br&gt;Registry" style="text;html=1;strokeColor=none;fillColor=none;align=center;verticalAlign=middle;whiteSpace=wrap;rounded=0;fontFamily=Comic Sans MS;fontSize=12;" vertex="1" parent="31">
                    <mxGeometry y="12.25" width="92" height="35.5" as="geometry"/>
                </mxCell>
                <mxCell id="32" value="" style="group" vertex="1" connectable="0" parent="1">
                    <mxGeometry x="85" y="404" width="88" height="56" as="geometry"/>
                </mxCell>
                <mxCell id="33" value="" style="rounded=0;whiteSpace=wrap;html=1;fontFamily=Comic Sans MS;" vertex="1" parent="32">
                    <mxGeometry x="1.9130434782608696" width="86.08695652173914" height="56" as="geometry"/>
                </mxCell>
                <mxCell id="34" value="Omnibridge &quot;Mediator&quot;" style="text;html=1;strokeColor=none;fillColor=none;align=center;verticalAlign=middle;whiteSpace=wrap;rounded=0;fontFamily=Comic Sans MS;fontSize=12;" vertex="1" parent="32">
                    <mxGeometry y="11.433333333333334" width="88" height="33.13333333333333" as="geometry"/>
                </mxCell>
                <mxCell id="35" value="" style="group" vertex="1" connectable="0" parent="1">
                    <mxGeometry x="133" y="500" width="92" height="60" as="geometry"/>
                </mxCell>
                <mxCell id="36" value="" style="rounded=0;whiteSpace=wrap;html=1;fontFamily=Comic Sans MS;" vertex="1" parent="35">
                    <mxGeometry x="2" width="90" height="60" as="geometry"/>
                </mxCell>
                <mxCell id="37" value="ERC-20 Token&lt;br&gt;Registry" style="text;html=1;strokeColor=none;fillColor=none;align=center;verticalAlign=middle;whiteSpace=wrap;rounded=0;fontFamily=Comic Sans MS;fontSize=12;" vertex="1" parent="35">
                    <mxGeometry y="12.25" width="92" height="35.5" as="geometry"/>
                </mxCell>
                <mxCell id="25" value="1" style="ellipse;whiteSpace=wrap;html=1;dashed=1;fontFamily=Comic Sans MS;fontSize=12;fontColor=#FFFFFF;strokeColor=none;strokeWidth=2;fillColor=#DD7143;rounded=0;" vertex="1" parent="1">
                    <mxGeometry x="19.99999999999997" y="590" width="32" height="32" as="geometry"/>
                </mxCell>
                <mxCell id="39" value="transferFrom" style="endArrow=classic;dashed=1;html=1;strokeWidth=2;entryX=0.25;entryY=1;entryDx=0;entryDy=0;endFill=1;fontFamily=Comic Sans MS;labelBackgroundColor=none;rounded=0;curved=1;exitX=0.5;exitY=0;exitDx=0;exitDy=0;" edge="1" parent="1" source="29" target="33">
                    <mxGeometry x="-0.0092" y="4" width="50" height="50" relative="1" as="geometry">
                        <mxPoint x="187" y="440.875" as="sourcePoint"/>
                        <mxPoint x="268.6414285714286" y="441.1428571428571" as="targetPoint"/>
                        <mxPoint as="offset"/>
                    </mxGeometry>
                </mxCell>
                <mxCell id="40" value="approve()" style="endArrow=classic;dashed=1;html=1;strokeWidth=2;entryX=0.5;entryY=1;entryDx=0;entryDy=0;endFill=1;fontFamily=Comic Sans MS;labelBackgroundColor=none;rounded=0;curved=1;" edge="1" parent="1" target="29">
                    <mxGeometry x="-0.0092" y="4" width="50" height="50" relative="1" as="geometry">
                        <mxPoint x="80" y="610" as="sourcePoint"/>
                        <mxPoint x="119.5" y="462" as="targetPoint"/>
                        <mxPoint as="offset"/>
                    </mxGeometry>
                </mxCell>
                <mxCell id="42" value="" style="group" vertex="1" connectable="0" parent="1">
                    <mxGeometry x="690" y="501" width="97.04" height="53.75" as="geometry"/>
                </mxCell>
                <mxCell id="43" value="" style="group" vertex="1" connectable="0" parent="42">
                    <mxGeometry x="-13" width="96.04" height="53.75" as="geometry"/>
                </mxCell>
                <mxCell id="27" value="" style="rounded=0;whiteSpace=wrap;html=1;fontFamily=Comic Sans MS;fillColor=none;strokeColor=#FFFFFF;dashed=1;strokeWidth=2;" vertex="1" parent="43">
                    <mxGeometry width="96.04" height="53.75" as="geometry"/>
                </mxCell>
                <mxCell id="28" value="New &lt;br&gt;ERC-677&amp;nbsp;&lt;br&gt;Registry" style="text;html=1;strokeColor=none;fillColor=none;align=center;verticalAlign=middle;whiteSpace=wrap;rounded=0;fontFamily=Comic Sans MS;fontSize=12;fontColor=#FFFFFF;" vertex="1" parent="43">
                    <mxGeometry x="7" y="9.870000000000005" width="80" height="30" as="geometry"/>
                </mxCell>
                <mxCell id="45" value="" style="group" vertex="1" connectable="0" parent="1">
                    <mxGeometry x="786" y="500" width="104" height="60" as="geometry"/>
                </mxCell>
                <mxCell id="46" value="" style="rounded=0;whiteSpace=wrap;html=1;fontFamily=Comic Sans MS;fillColor=#d5e8d4;strokeColor=#82b366;" vertex="1" parent="45">
                    <mxGeometry width="104" height="60" as="geometry"/>
                </mxCell>
                <mxCell id="47" value="ERC-677 &lt;br&gt;Registry" style="text;html=1;strokeColor=none;fillColor=none;align=center;verticalAlign=middle;whiteSpace=wrap;rounded=0;fontFamily=Comic Sans MS;fontSize=12;" vertex="1" parent="45">
                    <mxGeometry x="11.146133490149989" y="13" width="85.20905615995295" height="30" as="geometry"/>
                </mxCell>
                <mxCell id="51" value="" style="group;fontFamily=Comic Sans MS;fontSize=11;rounded=0;" vertex="1" connectable="0" parent="1">
                    <mxGeometry x="736" y="402" width="93" height="60" as="geometry"/>
                </mxCell>
                <mxCell id="52" value="" style="group" vertex="1" connectable="0" parent="51">
                    <mxGeometry width="93" height="60" as="geometry"/>
                </mxCell>
                <mxCell id="55" value="" style="group" vertex="1" connectable="0" parent="52">
                    <mxGeometry x="3" width="90" height="60" as="geometry"/>
                </mxCell>
                <mxCell id="53" value="" style="rounded=0;whiteSpace=wrap;html=1;fontFamily=Comic Sans MS;fillColor=#d5e8d4;strokeColor=#82b366;" vertex="1" parent="55">
                    <mxGeometry width="90" height="60" as="geometry"/>
                </mxCell>
                <mxCell id="54" value="Omnibridge &quot;Mediator&quot;" style="text;html=1;strokeColor=none;fillColor=none;align=center;verticalAlign=middle;whiteSpace=wrap;rounded=0;fontFamily=Comic Sans MS;fontSize=12;" vertex="1" parent="55">
                    <mxGeometry x="6.645692443399028" y="13" width="73.738606292267" height="30" as="geometry"/>
                </mxCell>
                <mxCell id="56" value="Calls" style="endArrow=classic;dashed=1;html=1;strokeWidth=2;endFill=1;fontFamily=Comic Sans MS;labelBackgroundColor=none;rounded=0;curved=1;exitX=1;exitY=0.5;exitDx=0;exitDy=0;strokeColor=#FFFFFF;fontColor=#FFFFFF;" edge="1" parent="1" source="19">
                    <mxGeometry x="-0.1155" y="11" width="50" height="50" relative="1" as="geometry">
                        <mxPoint x="673" y="433.5" as="sourcePoint"/>
                        <mxPoint x="740" y="434" as="targetPoint"/>
                        <mxPoint as="offset"/>
                    </mxGeometry>
                </mxCell>
                <mxCell id="57" value="deploys" style="endArrow=classic;dashed=1;html=1;strokeWidth=2;endFill=1;fontFamily=Comic Sans MS;labelBackgroundColor=none;rounded=0;curved=1;exitX=0.25;exitY=1;exitDx=0;exitDy=0;strokeColor=#FFFFFF;fontColor=#FFFFFF;entryX=0.5;entryY=0;entryDx=0;entryDy=0;" edge="1" parent="1" source="53" target="27">
                    <mxGeometry x="0.4155" y="-23" width="50" height="50" relative="1" as="geometry">
                        <mxPoint x="672" y="444" as="sourcePoint"/>
                        <mxPoint x="750" y="444" as="targetPoint"/>
                        <mxPoint as="offset"/>
                    </mxGeometry>
                </mxCell>
                <mxCell id="58" value="mints" style="endArrow=classic;dashed=1;html=1;strokeWidth=2;endFill=1;fontFamily=Comic Sans MS;labelBackgroundColor=none;rounded=0;curved=1;exitX=0.75;exitY=1;exitDx=0;exitDy=0;strokeColor=#FFFFFF;fontColor=#FFFFFF;entryX=0.5;entryY=0;entryDx=0;entryDy=0;" edge="1" parent="1" source="53" target="46">
                    <mxGeometry x="0.3387" y="23" width="50" height="50" relative="1" as="geometry">
                        <mxPoint x="771.5" y="472" as="sourcePoint"/>
                        <mxPoint x="735.02" y="511" as="targetPoint"/>
                        <mxPoint as="offset"/>
                    </mxGeometry>
                </mxCell>
                <mxCell id="59" value="2" style="ellipse;whiteSpace=wrap;html=1;dashed=1;fontFamily=Comic Sans MS;fontSize=12;fontColor=#FFFFFF;strokeColor=none;strokeWidth=2;fillColor=#DD7143;rounded=0;" vertex="1" parent="1">
                    <mxGeometry x="33" y="440" width="32" height="32" as="geometry"/>
                </mxCell>
                <mxCell id="60" value="3" style="ellipse;whiteSpace=wrap;html=1;dashed=1;fontFamily=Comic Sans MS;fontSize=12;fontColor=#FFFFFF;strokeColor=none;strokeWidth=2;fillColor=#DD7143;rounded=0;" vertex="1" parent="1">
                    <mxGeometry x="172.99999999999997" y="378" width="32" height="32" as="geometry"/>
                </mxCell>
                <mxCell id="21" value="6" style="ellipse;whiteSpace=wrap;html=1;dashed=1;fontFamily=Comic Sans MS;fontSize=12;fontColor=#FFFFFF;strokeColor=none;strokeWidth=2;fillColor=#DD7143;rounded=0;" vertex="1" parent="1">
                    <mxGeometry x="715" y="388" width="30" height="30" as="geometry"/>
                </mxCell>
                <mxCell id="61" value="increments balance" style="endArrow=classic;dashed=1;html=1;strokeWidth=2;endFill=1;fontFamily=Comic Sans MS;labelBackgroundColor=none;rounded=0;curved=1;" edge="1" parent="1" source="46">
                    <mxGeometry x="-0.0092" y="4" width="50" height="50" relative="1" as="geometry">
                        <mxPoint x="827" y="690" as="sourcePoint"/>
                        <mxPoint x="838" y="610" as="targetPoint"/>
                        <mxPoint as="offset"/>
                    </mxGeometry>
                </mxCell>
                <mxCell id="63" value="" style="shape=umlActor;verticalLabelPosition=bottom;verticalAlign=top;html=1;outlineConnect=0;fontFamily=Comic Sans MS;fontSize=13;fontColor=#FFFFFF;strokeColor=default;strokeWidth=2;fillColor=none;rounded=0;" vertex="1" parent="1">
                    <mxGeometry x="65" y="622" width="23" height="46" as="geometry"/>
                </mxCell>
                <mxCell id="64" value="" style="shape=umlActor;verticalLabelPosition=bottom;verticalAlign=top;html=1;outlineConnect=0;fontFamily=Comic Sans MS;fontSize=13;fontColor=#FFFFFF;strokeColor=default;strokeWidth=2;fillColor=none;rounded=0;" vertex="1" parent="1">
                    <mxGeometry x="850" y="610" width="23" height="46" as="geometry"/>
                </mxCell>
            </root>
        </mxGraphModel>
    </diagram>
</mxfile>